<?xml version="1.0" encoding="utf-8"?>
<!-- Generator: Adobe Illustrator 24.1.0, SVG Export Plug-In . SVG Version: 6.00 Build 0)  -->
<svg version="1.1" id="Ebene_1" xmlns="http://www.w3.org/2000/svg" xmlns:xlink="http://www.w3.org/1999/xlink" x="0px" y="0px"
	 viewBox="0 0 283.46 283.46" style="enable-background:new 0 0 283.46 283.46;" xml:space="preserve">
<style type="text/css">
	.st0{fill:url(#SVGID_1_);}
	.st1{fill:none;stroke:#878787;stroke-width:3.9682;stroke-linecap:round;stroke-miterlimit:10;}
	.st2{fill:#FFFFFF;}
	.st3{fill:none;stroke:#FFFFFF;stroke-width:2.9;stroke-linecap:round;stroke-linejoin:round;stroke-miterlimit:10;}
</style>
<g>
	<linearGradient id="SVGID_1_" gradientUnits="userSpaceOnUse" x1="82.9457" y1="105.1211" x2="195.757" y2="170.2527">
		<stop  offset="0" style="stop-color:#70D5FF"/>
		<stop  offset="1" style="stop-color:#1D71B8"/>
	</linearGradient>
	<circle class="st0" cx="139.35" cy="137.69" r="65.12"/>
	<g>
		<path class="st1" d="M152.2,185.08"/>
		<path class="st2" d="M156.79,173.6c-1.18,0.18-10.05,3.68-6.05,11.53c4,7.85,11.66,3.22,12.76,2.3c0.65-0.55-1.31-3.92-3-7.28
			C158.83,176.83,157.42,173.51,156.79,173.6z"/>
		<path class="st2" d="M164.48,185.68l-5.98-11.75c-0.32-0.62,0.02-1.42,0.74-1.79c0.73-0.37,1.57-0.17,1.88,0.45l5.98,11.75
			c0.32,0.62-0.02,1.42-0.74,1.79C165.64,186.5,164.8,186.3,164.48,185.68z"/>
		<path class="st2" d="M161.23,176.63c-0.33-0.65-0.18-1.39,0.33-1.65l4.58-2.32c0.51-0.26,1.2,0.06,1.53,0.71
			c0.33,0.65,0.18,1.39-0.33,1.65l-4.58,2.32C162.25,177.6,161.57,177.28,161.23,176.63z"/>
		<path class="st2" d="M163.71,181.48c-0.35-0.68-0.21-1.44,0.3-1.7l4.58-2.32c0.51-0.26,1.21,0.08,1.56,0.76s0.21,1.44-0.3,1.7
			l-4.58,2.32C164.75,182.5,164.05,182.16,163.71,181.48z"/>
	</g>
	<path class="st3" d="M154.61,183.87c-4.87,1.6-10.08,2.47-15.49,2.47c-27.33,0-49.48-22.15-49.48-49.48s22.15-49.48,49.48-49.48
		s49.48,22.15,49.48,49.48c0,13.25-5.21,25.29-13.69,34.17"/>
	<g>
		<path class="st3" d="M100.62,132.44c0,0,2.33,3.04,5.16,2.52c4.46-0.82,6.46-3.63,8.75-5.88c2.29-2.25,4.77-2.77,7.16,0
			c3.12,3.62,4.71,5.57,7.36,5.88c2.3,0.27,5.52-1.62,8.79-5.88c1.99-2.6,5.97-2.77,7.36-0.69c1.61,2.39,4.77,6.23,7.56,6.57
			c2.78,0.35,6.36-3.63,7.96-5.36c1.59-1.73,3.54-3.46,6.72-0.69c3.18,2.77,5.2,6.29,8.34,5.4"/>
		<path class="st3" d="M100.62,147.84c0,0,2.33,3.04,5.16,2.52c4.46-0.82,6.46-3.63,8.75-5.88c2.29-2.25,4.77-2.77,7.16,0
			c3.12,3.62,4.71,5.57,7.36,5.88c2.3,0.27,5.52-1.62,8.79-5.88c1.99-2.6,5.97-2.77,7.36-0.69c1.61,2.39,4.77,6.23,7.56,6.57
			c2.78,0.35,6.36-3.63,7.96-5.36c1.59-1.73,3.54-3.46,6.72-0.69c3.18,2.77,5.2,6.29,8.34,5.4"/>
	</g>
</g>
</svg>
